<?xml version="1.0" encoding="utf-8"?>
<!-- Generator: Adobe Illustrator 16.0.0, SVG Export Plug-In . SVG Version: 6.00 Build 0)  -->
<!DOCTYPE svg PUBLIC "-//W3C//DTD SVG 1.1//EN" "http://www.w3.org/Graphics/SVG/1.1/DTD/svg11.dtd">
<svg version="1.1" id="Layer_1" xmlns="http://www.w3.org/2000/svg" xmlns:xlink="http://www.w3.org/1999/xlink" x="0px" y="0px"
	 width="256px" height="256px" viewBox="0 0 256 256" enable-background="new 0 0 256 256" xml:space="preserve">
<g>
	<path fill="#FAFAFA" d="M163.721,116.521c0,4.17-3.382,7.55-7.552,7.55H99.968c-4.169,0-7.549-3.38-7.549-7.55V61.158
		c0-4.169,3.38-7.549,7.549-7.549h56.201c4.17,0,7.552,3.38,7.552,7.549V116.521L163.721,116.521z"/>
	<path fill="#FAFAFA" d="M163.809,188.66c0,4.17-3.379,7.55-7.55,7.55h-56.203c-4.169,0-7.549-3.38-7.549-7.55v-55.363
		c0-4.169,3.38-7.55,7.549-7.55h56.203c4.171,0,7.55,3.381,7.55,7.55V188.66z"/>
	<path fill="#FAFAFA" d="M237.73,188.66c0,4.17-3.379,7.55-7.549,7.55H173.98c-4.17,0-7.551-3.38-7.551-7.55v-55.363
		c0-4.169,3.381-7.55,7.551-7.55h56.201c4.17,0,7.549,3.381,7.549,7.55V188.66z"/>
	<path fill="#FAFAFA" d="M89.571,188.66c0,4.17-3.38,7.55-7.55,7.55H25.82c-4.169,0-7.549-3.38-7.549-7.55v-55.363
		c0-4.169,3.38-7.55,7.549-7.55h56.202c4.17,0,7.55,3.381,7.55,7.55L89.571,188.66L89.571,188.66z"/>
</g>
<g>
	<polygon fill="#444444" points="133.307,106.263 133.307,87.315 138.927,87.316 128.068,68.482 117.211,87.315 122.831,87.316 
		122.831,106.263 	"/>
	<polygon fill="#444444" points="122.92,140.62 122.919,159.566 117.299,159.566 128.158,178.4 139.016,159.566 133.396,159.566 
		133.396,140.62 	"/>
	<polygon fill="#444444" points="183.189,164.748 202.137,164.749 202.137,170.368 220.971,159.51 202.137,148.652 202.137,154.271 
		183.189,154.271 	"/>
	<polygon fill="#444444" points="72.812,154.273 53.864,154.271 53.865,148.652 35.031,159.511 53.864,170.368 53.865,164.749 
		72.812,164.749 	"/>
</g>
</svg>
