<?xml version="1.0" encoding="utf-8"?>
<!-- Generator: Adobe Illustrator 16.0.0, SVG Export Plug-In . SVG Version: 6.00 Build 0)  -->
<!DOCTYPE svg PUBLIC "-//W3C//DTD SVG 1.1//EN" "http://www.w3.org/Graphics/SVG/1.1/DTD/svg11.dtd">
<svg version="1.1" id="Layer_1" xmlns="http://www.w3.org/2000/svg" xmlns:xlink="http://www.w3.org/1999/xlink" x="0px" y="0px"
	 width="256px" height="256px" viewBox="0 0 256 256" enable-background="new 0 0 256 256" xml:space="preserve">
<path fill="#00C2A8" d="M122.589,131.225v-10.979c-4.529-1.868-7.682-6.007-7.682-10.817V89.004c0-4.812,3.15-8.948,7.682-10.817
	v-21.65h-5.109c-21.58,0-39.074,16.928-39.074,37.812v36.877h44.183V131.225z"/>
<g>
	<path fill="#FAFAFA" d="M136.566,106.428c0,4.731-3.836,8.566-8.566,8.566l0,0c-4.732,0-8.566-3.835-8.566-8.566V91.701
		c0-4.731,3.835-8.566,8.566-8.566l0,0c4.73,0,8.566,3.835,8.566,8.566V106.428z"/>
	<path fill="#FAFAFA" d="M133.407,78.187c4.53,1.868,7.684,6.006,7.684,10.817v20.423c0,4.809-3.151,8.948-7.684,10.817v10.98
		h44.186V94.348c0-20.884-17.491-37.812-39.071-37.812h-5.112L133.407,78.187z"/>
	<path fill="#FAFAFA" d="M78.405,134.381v28.608c0,20.886,17.494,37.815,39.074,37.815h21.041c21.58,0,39.072-16.932,39.072-37.815
		v-28.608H78.405z"/>
	<path fill="#FAFAFA" d="M49.8,100.966c0-2.336-1.301-2.85-2.894-1.139L21.89,126.706c-1.592,1.71-1.543,4.461,0.109,6.11
		L46.796,157.6c1.651,1.651,3.004,1.092,3.004-1.244v-1.127c0-2.336,1.912-4.248,4.248-4.248h11.34c2.336,0,4.248-1.91,4.248-4.248
		v-36.146c0-2.336-1.912-4.248-4.248-4.248h-11.34c-2.336,0-4.248-1.912-4.248-4.248V100.966L49.8,100.966z"/>
	<path fill="#FAFAFA" d="M206.199,156.376c0,2.337,1.303,2.851,2.896,1.14l25.016-26.88c1.592-1.71,1.541-4.461-0.11-6.113
		L209.206,99.74c-1.651-1.65-3.005-1.09-3.005,1.246v1.125c0,2.336-1.911,4.248-4.248,4.248h-11.34
		c-2.336,0-4.247,1.912-4.247,4.248v36.147c0,2.337,1.911,4.248,4.247,4.248h11.34c2.337,0,4.248,1.911,4.248,4.248L206.199,156.376
		L206.199,156.376z"/>
	<path fill="#FAFAFA" d="M156.534,32.108c1.875,0,2.286-1.045,0.914-2.323L129.341,3.626c-1.373-1.278-3.58-1.238-4.905,0.088
		l-25.97,25.982c-1.326,1.326-0.875,2.41,1,2.41h2.803c1.875,0,3.408,1.534,3.408,3.409v13.017c0,1.875,1.535,3.41,3.41,3.41h37.825
		c1.875,0,3.408-1.535,3.408-3.41V35.516c0-1.875,1.535-3.409,3.41-3.409L156.534,32.108L156.534,32.108z"/>
	<path fill="#FAFAFA" d="M102.647,224.232c-2.336,0-2.85,1.305-1.139,2.896l26.879,25.018c1.71,1.592,4.46,1.543,6.111-0.111
		l24.783-24.795c1.652-1.652,1.092-3.004-1.244-3.004h-1.125c-2.338,0-4.248-1.912-4.248-4.248v-11.34
		c0-2.336-1.912-4.248-4.248-4.248h-36.148c-2.336,0-4.248,1.912-4.248,4.248v11.34c0,2.336-1.912,4.248-4.248,4.248h-1.125V224.232
		L102.647,224.232z"/>
</g>
</svg>
