<?xml version="1.0" encoding="utf-8"?>
<!-- Generator: Adobe Illustrator 18.0.0, SVG Export Plug-In . SVG Version: 6.00 Build 0)  -->
<!DOCTYPE svg PUBLIC "-//W3C//DTD SVG 1.1//EN" "http://www.w3.org/Graphics/SVG/1.1/DTD/svg11.dtd">
<svg version="1.1" xmlns="http://www.w3.org/2000/svg" xmlns:xlink="http://www.w3.org/1999/xlink" x="0px" y="0px"
	 viewBox="0 0 256 256" enable-background="new 0 0 256 256" xml:space="preserve">
<g id="Layer_1">
	<g id="Layer_2_1_">
		<path opacity="0.5" enable-background="new    " d="M128.5,0C57.8,0,0.5,57.3,0.5,128s57.3,128,128,128s128-57.3,128-128
			S199.2,0,128.5,0z M102,200.4H79.4v-28.7H49.3l0.2-23H102V200.4z M102,108.5H49.5V85.3h29.8L79,57h23V108.5z M211.1,171h-28.7v29
			H159v-51.3h52.1V171z M211.1,108.5h-52V57h23.1v29H211L211.1,108.5L211.1,108.5z"/>
	</g>
</g>
<g id="Layer_2" opacity="0.5">
	<polygon fill="#FFFFFF" points="49.5,85.3 79.3,85.3 79,57 102,57 102,108.5 49.5,108.5 	"/>
	<polygon fill="#FFFFFF" points="211,86 182.2,86 182.2,57 159.1,57 159.1,108.5 211.1,108.5 	"/>
	<polygon fill="#FFFFFF" points="211.1,171 182.4,171 182.4,200 159,200 159,148.7 211.1,148.7 	"/>
	<polygon fill="#FFFFFF" points="49.3,171.7 79.4,171.7 79.4,200.4 102,200.4 102,148.7 49.5,148.7 	"/>
</g>
</svg>
