<?xml version="1.0" encoding="utf-8"?>
<!-- Generator: Adobe Illustrator 18.0.0, SVG Export Plug-In . SVG Version: 6.00 Build 0)  -->
<!DOCTYPE svg PUBLIC "-//W3C//DTD SVG 1.1//EN" "http://www.w3.org/Graphics/SVG/1.1/DTD/svg11.dtd">
<svg version="1.1" id="Layer_1" xmlns="http://www.w3.org/2000/svg" xmlns:xlink="http://www.w3.org/1999/xlink" x="0px" y="0px"
	 viewBox="0 0 256 256" enable-background="new 0 0 256 256" xml:space="preserve">
<g id="Layer_1_1_">
	<path opacity="0.5" enable-background="new    " d="M128,0.5C57.6,0.5,0.5,57.6,0.5,128S57.6,255.5,128,255.5
		S255.5,198.4,255.5,128S198.4,0.5,128,0.5z M124,223.9c-10.2,0.9-20.3-8.3-20.3-20.1c0.1-11.2,9.2-20.3,20.4-20.3
		c11.2,0,20.1,9.2,20.2,20.4C144.5,215,134.8,224.9,124,223.9z M170.6,126.2c-5.8,4.4-11.8,8.7-17.3,13.4
		c-7.3,6.3-11.4,14.2-10.8,24.2c0.3,4.6,0.1,4.6-4.6,4.6c-9.2,0-18.2-0.1-27.3,0.1c-2.4,0.1-3.3-0.5-3.3-3.2
		c-0.2-10.5,0.7-20.8,5.7-30.5c3.4-6.6,8.3-11.8,14-16.6c5.4-4.6,11.3-8.9,16-14.2c7.6-8.3,7.5-24.5,0.6-32.4
		c-9-10.3-28.5-8.7-36.8,3.1c-4.3,6.1-6.1,13-6.4,20.3c-0.1,3.2-1.2,1.1-4.1,1c-10.2-0.2-20.3-2.9-30.4-2.9h-4.4c1,0,1.4-9.3,2.8-15
		c6.9-28.3,29.8-44.5,59-44.7c12.1-0.1,23.9,1.6,35,6.4c16.3,7.1,27.6,19.2,30.5,37C191.8,96.2,186.9,113.7,170.6,126.2z"/>
	<path opacity="0.5" fill="#FFFFFF" enable-background="new    " d="M144.3,203.9c0.2,11.1-9.5,21-20.3,20
		c-10.2,0.9-20.3-8.3-20.3-20.1c0.1-11.2,9.2-20.3,20.4-20.3C135.3,183.5,144.2,192.7,144.3,203.9z"/>
	<path opacity="0.5" fill="#FFFFFF" enable-background="new    " d="M170.6,126.2c-5.8,4.4-11.8,8.7-17.3,13.4
		c-7.3,6.3-11.4,14.2-10.8,24.2c0.3,4.6,0.1,4.6-4.6,4.6c-9.2,0-18.2-0.1-27.3,0.1c-2.4,0.1-3.3-0.5-3.3-3.2
		c-0.2-10.5,0.7-20.8,5.7-30.5c3.4-6.6,8.3-11.8,14-16.6c5.4-4.6,11.3-8.9,16-14.2c7.6-8.3,7.5-24.5,0.6-32.4
		c-9-10.3-28.5-8.7-36.8,3.1c-4.3,6.1-6.1,13-6.4,20.3c-0.1,3.2-1.2,1.1-4.1,1c-10.2-0.2-20.3-2.9-30.4-2.9h-4.4c1,0,1.4-9.3,2.8-15
		c6.9-28.3,29.8-44.5,59-44.7c12.1-0.1,23.9,1.6,35,6.4c16.3,7.1,27.6,19.2,30.5,37C191.8,96.2,186.9,113.7,170.6,126.2z"/>
</g>
</svg>
