<?xml version="1.0" encoding="utf-8"?>
<!-- Generator: Adobe Illustrator 16.0.0, SVG Export Plug-In . SVG Version: 6.00 Build 0)  -->
<!DOCTYPE svg PUBLIC "-//W3C//DTD SVG 1.1//EN" "http://www.w3.org/Graphics/SVG/1.1/DTD/svg11.dtd">
<svg version="1.1" id="Layer_1" xmlns="http://www.w3.org/2000/svg" xmlns:xlink="http://www.w3.org/1999/xlink" x="0px" y="0px"
	 width="256px" height="256px" viewBox="0 0 256 256" enable-background="new 0 0 256 256" xml:space="preserve">
<g>
	<path fill="#FAFAFA" d="M136.566,106.428c0,4.731-3.835,8.566-8.566,8.566l0,0c-4.732,0-8.566-3.835-8.566-8.566V91.701
		c0-4.731,3.835-8.566,8.566-8.566l0,0c4.731,0,8.566,3.835,8.566,8.566V106.428z"/>
	<g>
		<path fill="#FAFAFA" d="M70.565,85.212C75.007,71.261,84.463,60,97.321,53.039c2.836-1.536,0.312-5.853-2.523-4.317
			C80.805,56.298,70.569,68.73,65.744,83.884C64.763,86.964,69.591,88.272,70.565,85.212L70.565,85.212z"/>
		<path fill="#FAFAFA" d="M133.407,78.187c4.53,1.868,7.684,6.006,7.684,10.817v20.423c0,4.809-3.152,8.948-7.684,10.817v10.98
			h44.186V94.348c0-20.884-17.492-37.812-39.072-37.812h-5.112L133.407,78.187z"/>
		<path fill="#FAFAFA" d="M78.405,134.381v28.608c0,20.886,17.494,37.815,39.074,37.815h21.041c21.58,0,39.072-16.931,39.072-37.815
			v-28.608H78.405z"/>
	</g>
</g>
<path fill="#00C2A8" d="M122.589,131.225v-10.98c-4.529-1.868-7.682-6.007-7.682-10.817V89.004c0-4.812,3.15-8.948,7.682-10.817
	v-21.65h-5.109c-21.58,0-39.074,16.928-39.074,37.812v36.877H122.589z"/>
</svg>
