<?xml version="1.0" encoding="utf-8"?>
<!-- Generator: Adobe Illustrator 16.0.0, SVG Export Plug-In . SVG Version: 6.00 Build 0)  -->
<!DOCTYPE svg PUBLIC "-//W3C//DTD SVG 1.1//EN" "http://www.w3.org/Graphics/SVG/1.1/DTD/svg11.dtd">
<svg version="1.1"
	 id="Layer_1" xmlns:sodipodi="http://sodipodi.sourceforge.net/DTD/sodipodi-0.dtd" xmlns:inkscape="http://www.inkscape.org/namespaces/inkscape" xmlns:svg="http://www.w3.org/2000/svg" xmlns:dc="http://purl.org/dc/elements/1.1/" xmlns:rdf="http://www.w3.org/1999/02/22-rdf-syntax-ns#" xmlns:cc="http://creativecommons.org/ns#" inkscape:version="0.48.4 r9939" sodipodi:docname="marker1.svg"
	 xmlns="http://www.w3.org/2000/svg" xmlns:xlink="http://www.w3.org/1999/xlink" x="0px" y="0px" width="256px" height="256px"
	 viewBox="0 0 256 256" enable-background="new 0 0 256 256" xml:space="preserve">
<path id="path10" fill="#E6E6E6" d="M127.917,7.229C60.718,7.229,6.229,61.719,6.229,128.914
	c0,67.201,54.49,121.689,121.688,121.689c67.202,0,121.692-54.488,121.692-121.689C249.607,61.719,195.117,7.229,127.917,7.229z
	 M226.016,182.953l-18.938-10.972c-1.037,1.91-2.164,3.78-3.371,5.614l18.982,10.962c-8.973,14.329-21.139,26.457-35.51,35.388
	l-11.174-18.899c-1.82,1.249-3.73,2.331-5.641,3.325l11.164,18.899c-15.035,8.218-32.146,13.076-50.336,13.578V218.88
	c-1.039,0.09-2.117,0.09-3.198,0.09c-1.123,0-2.241-0.045-3.364-0.09v21.97c-17.068-0.453-33.182-4.773-47.511-12.127l10.63-19.229
	c-1.952-0.998-3.862-2.037-5.731-3.155l-10.631,19.271c-14.743-8.595-27.368-20.515-36.757-34.719l18.855-11.507
	c-1.246-1.783-2.409-3.612-3.487-5.522l-18.816,11.506c-9.012-15.362-14.451-33.06-15.157-51.998h22.137
	c-0.085-1.412-0.125-2.908-0.125-4.36c0-0.746,0-1.496,0.041-2.202H15.946c0.333-18.104,4.944-35.135,12.877-50.125L48.052,87.77
	c0.953-1.955,2.036-3.82,3.197-5.69L32.065,70.99c8.886-14.702,21.093-27.247,35.589-36.465L78.95,53.628
	c1.829-1.246,3.658-2.365,5.568-3.403L73.264,31.163C88.546,22.563,106.031,17.498,124.635,17v22.136
	c1.125-0.045,2.244-0.085,3.367-0.085c1.078,0,2.158,0,3.197,0.085V16.991c17.484,0.454,33.979,4.98,48.551,12.626l-10.674,19.31
	c1.953,0.998,3.816,2.037,5.648,3.156l10.67-19.27c14.955,8.886,27.617,21.224,36.926,35.881L203.541,80.16
	c1.205,1.825,2.332,3.653,3.371,5.565l18.77-11.462c8.768,15.574,13.875,33.472,14.203,52.534H217.92
	c0.045,0.707,0.045,1.457,0.045,2.203c0,1.451-0.045,2.949-0.127,4.361h21.973C239.139,151.303,234.24,168.121,226.016,182.953z"/>
<path id="path13" opacity="0.2" fill="#E6E6E6" enable-background="new    " d="M128.002,16.408
	C65.83,16.408,15.408,66.784,15.408,129c0,62.171,50.422,112.589,112.594,112.589S240.592,191.166,240.592,129
	C240.598,66.784,190.174,16.408,128.002,16.408z M128.002,218.582c-49.506,0-89.585-40.118-89.585-89.582
	c0-49.505,40.08-89.584,89.585-89.584c49.465,0,89.582,40.079,89.582,89.584C217.586,178.464,177.467,218.582,128.002,218.582z"/>
<path id="path16" fill="#E6E6E6" d="M128.002,1C57.313,1,0,58.312,0,129c0,70.684,57.313,128,128.002,128
	C198.688,257,256,199.684,256,129.004C256.004,58.312,198.688,1,128.002,1z M128.002,250.771
	C60.759,250.771,6.229,196.236,6.229,129C6.229,61.76,60.76,7.229,128.002,7.229c67.238,0,121.773,54.53,121.773,121.771
	C249.775,196.236,195.238,250.771,128.002,250.771z"/>
</svg>
