<?xml version="1.0" encoding="utf-8"?>
<!-- Generator: Adobe Illustrator 16.0.0, SVG Export Plug-In . SVG Version: 6.00 Build 0)  -->
<!DOCTYPE svg PUBLIC "-//W3C//DTD SVG 1.1//EN" "http://www.w3.org/Graphics/SVG/1.1/DTD/svg11.dtd">
<svg version="1.1" id="Layer_1" xmlns="http://www.w3.org/2000/svg" xmlns:xlink="http://www.w3.org/1999/xlink" x="0px" y="0px"
	 width="256px" height="256px" viewBox="-97.18 -97.18 256 256" enable-background="new -97.18 -97.18 256 256"
	 xml:space="preserve">
<g id="Layer_1_1_" display="none">
	
		<image display="inline" overflow="visible" enable-background="new    " width="256" height="256" xlink:href="../marker1.png"  transform="matrix(0.24 0 0 0.24 0.0798 0.0798)">
	</image>
</g>
<g id="Layer_2" display="none">
	<path display="inline" fill="#00C2A8" d="M30.8,0.08C13.83,0.08,0.08,13.83,0.08,30.8C0.08,47.77,13.83,61.52,30.8,61.52
		C47.77,61.52,61.52,47.77,61.52,30.8C61.52,13.83,47.771,0.08,30.8,0.08z M30.8,60.19C14.57,60.19,1.41,47.03,1.41,30.8
		C1.41,14.57,14.57,1.41,30.8,1.41c16.23,0,29.391,13.16,29.391,29.39C60.19,47.03,47.03,60.19,30.8,60.19z"/>
</g>
<g id="Layer_3" opacity="0.5">
	<path fill="#00C2A8" d="M30.738-90.95C-36.461-90.95-90.95-36.461-90.95,30.735c0,67.2,54.49,121.689,121.688,121.689
		c67.201,0,121.691-54.489,121.691-121.689C152.428-36.461,97.938-90.95,30.738-90.95z M128.837,84.774l-18.938-10.972
		c-1.038,1.91-2.165,3.78-3.371,5.614l18.982,10.962c-8.973,14.329-21.139,26.457-35.509,35.387l-11.174-18.899
		c-1.821,1.249-3.732,2.331-5.642,3.326l11.165,18.899c-15.035,8.217-32.147,13.076-50.337,13.578V120.7
		c-1.038,0.09-2.116,0.09-3.197,0.09c-1.123,0-2.242-0.045-3.365-0.09v21.97c-17.067-0.453-33.181-4.774-47.51-12.127l10.63-19.228
		c-1.952-0.998-3.862-2.037-5.731-3.156l-10.631,19.27c-14.743-8.594-27.368-20.514-36.757-34.718l18.855-11.507
		c-1.246-1.783-2.409-3.612-3.487-5.522l-18.816,11.505c-9.012-15.362-14.451-33.059-15.157-51.998h22.137
		c-0.085-1.411-0.125-2.908-0.125-4.36c0-0.746,0-1.496,0.041-2.202h-22.133c0.333-18.104,4.944-35.135,12.877-50.125l19.229,11.088
		c0.953-1.955,2.036-3.82,3.197-5.69L-65.114-27.19c8.886-14.702,21.093-27.247,35.589-36.465l11.296,19.103
		c1.829-1.246,3.658-2.365,5.568-3.403l-11.254-19.062c15.282-8.599,32.767-13.665,51.371-14.163v22.136
		c1.124-0.045,2.243-0.085,3.367-0.085c1.078,0,2.158,0,3.196,0.085v-22.145c17.485,0.454,33.98,4.98,48.552,12.626L71.896-49.253
		c1.954,0.998,3.818,2.037,5.649,3.156l10.671-19.27c14.954,8.886,27.617,21.224,36.924,35.881l-18.779,11.466
		c1.206,1.825,2.333,3.653,3.372,5.565l18.77-11.462c8.766,15.574,13.874,33.472,14.203,52.534h-21.965
		c0.044,0.707,0.044,1.457,0.044,2.203c0,1.452-0.044,2.949-0.126,4.361h21.972C141.96,53.123,137.061,69.942,128.837,84.774z"/>
</g>
<g id="Layer_4">
	<path opacity="0.2" fill="#00C2A8" enable-background="new    " d="M30.823-81.772c-62.172,0-112.594,50.376-112.594,112.592
		c0,62.171,50.422,112.589,112.594,112.589c62.172,0,112.59-50.422,112.59-112.589C143.418-31.396,92.995-81.772,30.823-81.772z
		 M30.823,120.403c-49.506,0-89.585-40.119-89.585-89.583c0-49.505,40.08-89.584,89.585-89.584
		c49.465,0,89.582,40.079,89.582,89.584C120.407,80.284,80.288,120.403,30.823,120.403z"/>
</g>
<g id="Layer_5">
	<path fill="#00C2A8" d="M30.823-97.18c-70.689,0-128.002,57.312-128.002,128c0,70.684,57.313,128,128.002,128
		c70.685,0,127.998-57.316,127.998-127.996C158.825-39.868,101.508-97.18,30.823-97.18z M30.823,152.592
		C-36.42,152.592-90.95,98.056-90.95,30.82c0-67.24,54.531-121.77,121.773-121.77c67.237,0,121.773,54.53,121.773,121.77
		C152.595,98.056,98.059,152.592,30.823,152.592z"/>
</g>
</svg>
