<?xml version="1.0" encoding="utf-8"?>
<!-- Generator: Adobe Illustrator 18.0.0, SVG Export Plug-In . SVG Version: 6.00 Build 0)  -->
<!DOCTYPE svg PUBLIC "-//W3C//DTD SVG 1.1//EN" "http://www.w3.org/Graphics/SVG/1.1/DTD/svg11.dtd">
<svg version="1.1" xmlns="http://www.w3.org/2000/svg" xmlns:xlink="http://www.w3.org/1999/xlink" x="0px" y="0px"
	 viewBox="0 0 256 256" enable-background="new 0 0 256 256" xml:space="preserve">
<g id="Layer_3">
	<path fill="#FFFFFF" d="M134,209.8c0,0,35-4.1,42.5-25.1c-4-11-6-15.6-6-15.6l-2-43.8c0,0-3-7.3-4-9.8s-1-10.5-9.3-15.5
		c-1.9-0.7-2.8-1.5-4.8,0c0,0-2.5-12.5-12-13.8c0,0-2-14.3-10.5-16.3h-4l-13,11.3l-2.5-5.8c0,0-12-19.8-12.8-22.3s-9.5-8-13,2
		c0,0,3,19.5,4.3,22s9.3,23.8,9.3,23.8s4.8,36-6.5,39.3c-3.5-8.8-3.5-11.5-5.3-15l-0.3-5c0,0-7.8-20-18.3-16.8c0,0-5,1.3-1.3,15.3
		c0,0,0,8-1.4,10.9c0-0.1,2.9,9.5,3.6,13.9c0,0,4,4.3,5.5,16.5c0,0,20.3,18.3,23.3,20.8s12.8,6.5,12.8,6.5s3.8,1.3,6.8,7.3
		S124.3,210.3,134,209.8z"/>
</g>
<g id="Layer_6">
	<path fill="#FFFFFF" d="M89.5,37.4c-10.2,0-18.4,8.3-18.4,18.4c0,10.2,8.3,18.4,18.4,18.4s18.4-8.2,18.4-18.4
		C107.9,45.7,99.7,37.4,89.5,37.4z M89.5,70.3c-8,0-14.5-6.5-14.5-14.5s6.5-14.5,14.5-14.5S104,47.8,104,55.8S97.5,70.3,89.5,70.3z"
		/>
</g>
</svg>
