<?xml version="1.0" encoding="utf-8"?>
<!-- Generator: Adobe Illustrator 18.0.0, SVG Export Plug-In . SVG Version: 6.00 Build 0)  -->
<!DOCTYPE svg PUBLIC "-//W3C//DTD SVG 1.1//EN" "http://www.w3.org/Graphics/SVG/1.1/DTD/svg11.dtd">
<svg version="1.1" xmlns="http://www.w3.org/2000/svg" xmlns:xlink="http://www.w3.org/1999/xlink" x="0px" y="0px"
	 viewBox="0 0 256 256" enable-background="new 0 0 256 256" xml:space="preserve">
<g id="Layer_3">
	<path fill="#FFFFFF" d="M154,48v12c-39-1.2-75.1,15.4-76.2,15.9c37.2-11.1,76,2.1,76,2.1l1.3,12l22.2-20.4L154,48z M162.3,77.4
		c-4.7,0-8.5-3.8-8.5-8.5c0-4.7,3.8-8.5,8.5-8.5c4.7,0,8.5,3.8,8.5,8.5C170.8,73.6,167,77.4,162.3,77.4z"/>
</g>
<g id="Layer_2">
	<path fill="#FFFFFF" d="M118.9,207.2c0,0-10.6-0.3-13.3-6.5c0,0-1.7-8.9-3.1-12s-1-6.1-6.8-11.3c-5.8-5.1-14.7-37.6-14.7-37.6
		s6.8-17.4,7.2-23.9c0,0,0.7-4.8,10.2-6.5l7.2-8.2c0,0,5.5-3.1,7.2,6.8c0,0-0.7,10.6-9.2,14.3c0,0,2,4.4-1.4,7.9c0,0,2-0.7,3.8,1
		c1.7,1.7,13-20.8,13-20.8l35.9-43.4c0,0,4.1-7.5,11.3-2.4c3.1,3.1,2.4,5.8-2.4,12.6c-4.8,6.8-16.7,24.6-16.7,24.6l-5.8,12
		c0,0,5.1-4.4,9.6-7.9l3.1-3.1l-3.1-1.4l1.4-2l5.1-0.3c0,0,3.1-0.3,5.8,1.7c2.7,2,4.1,8.5,3.1,13.3c0,0,10.6,1.4,5.5,17.4
		c0,0,6.5,1.7,5.5,19.1c0,0-7.5,28.4-16.7,38.9c0.3,3.8,0,13.3,0,13.3S139.4,211.3,118.9,207.2z"/>
</g>
</svg>
